<?xml version="1.0" encoding="utf-8"?>
<!-- Generator: Adobe Illustrator 16.0.0, SVG Export Plug-In . SVG Version: 6.00 Build 0)  -->
<!DOCTYPE svg PUBLIC "-//W3C//DTD SVG 1.1//EN" "http://www.w3.org/Graphics/SVG/1.1/DTD/svg11.dtd">
<svg version="1.1" id="Layer_1" xmlns="http://www.w3.org/2000/svg" xmlns:xlink="http://www.w3.org/1999/xlink" x="0px" y="0px"
	 width="612px" height="792px" viewBox="0 0 612 792" enable-background="new 0 0 612 792" xml:space="preserve">
<g>
	<g>
		<rect x="293.088" y="381.974" stroke="#FFFFFF" stroke-width="0.4" width="21.573" height="21.977"/>
		<polygon stroke="#FFFFFF" stroke-width="0.4" points="314.661,381.974 293.113,381.974 298.562,377.592 319.122,377.592 
			319.122,377.592 319.122,399.438 314.661,403.938 314.661,381.974 		"/>
		<line fill="none" stroke="#FFFFFF" stroke-width="0.4" x1="314.661" y1="381.974" x2="319.122" y2="377.592"/>
		<polyline fill="none" stroke="#FFFFFF" stroke-width="1.425" points="311.864,399.53 307.141,399.53 300.728,386.596 
			296.492,386.596 		"/>
		<polyline fill="none" stroke="#FFFFFF" stroke-width="1.425" points="296.165,399.511 300.728,399.511 307.081,386.639 
			312.027,386.639 		"/>
		<g>
			<polygon fill="#FFFFFF" stroke="#FFFFFF" stroke-width="0.19" points="310.395,384.272 310.395,388.839 313.146,386.646 			"/>
		</g>
		<g>
			<polygon fill="#FFFFFF" stroke="#FFFFFF" stroke-width="0.19" points="310.395,397.145 310.395,401.711 313.146,399.518 			"/>
		</g>
	</g>
	<g>
		<polygon fill="#FFFFFF" stroke="#FFFFFF" stroke-width="0.19" points="297.131,388.924 297.131,384.357 294.379,386.551 		"/>
	</g>
	<g>
		<polygon fill="#FFFFFF" stroke="#FFFFFF" stroke-width="0.19" points="297.131,401.861 297.131,397.295 294.379,399.488 		"/>
	</g>
</g>
</svg>
