<?xml version="1.0" encoding="utf-8"?>
<!-- Generator: Adobe Illustrator 16.0.0, SVG Export Plug-In . SVG Version: 6.00 Build 0)  -->
<!DOCTYPE svg PUBLIC "-//W3C//DTD SVG 1.1//EN" "http://www.w3.org/Graphics/SVG/1.1/DTD/svg11.dtd">
<svg version="1.1" id="Layer_1" xmlns="http://www.w3.org/2000/svg" xmlns:xlink="http://www.w3.org/1999/xlink" x="0px" y="0px"
	 width="612px" height="792px" viewBox="0 0 612 792" enable-background="new 0 0 612 792" xml:space="preserve">
<path fill="#FFFFFF" d="M305.968,152.762c-134.388,0-243.327,108.941-243.327,243.327c0,134.387,108.939,243.329,243.327,243.329
	s243.327-108.941,243.327-243.329C549.295,261.703,440.355,152.762,305.968,152.762z M305.968,246.864
	c65.749,0,121.346,27.144,123.226,59.636c-1.88,32.493-57.477,59.645-123.226,59.645S184.62,339.003,182.74,306.5
	C184.62,274.007,240.219,246.864,305.968,246.864z M429.373,483.989c0,33.243-56.51,61.325-123.405,61.325
	c-66.897,0-123.405-28.082-123.405-61.325v-29.317c21.127,25.363,67.854,42.614,123.405,42.614
	c55.553,0,102.276-17.251,123.405-42.614V483.989z M429.373,423.857c0,33.238-56.51,61.323-123.405,61.323
	c-66.897,0-123.405-28.085-123.405-61.323v-30.545c21.127,25.357,67.854,42.61,123.405,42.61c55.553,0,102.276-17.259,123.405-42.61
	V423.857z M429.373,362.485c0,33.235-56.51,61.324-123.405,61.324c-66.897,0-123.405-28.089-123.405-61.324v-26.84
	c21.127,25.368,67.854,42.608,123.405,42.608c55.553,0,102.276-17.247,123.405-42.608V362.485z"/>
</svg>
