<?xml version="1.0" encoding="utf-8"?>
<!-- Generator: Adobe Illustrator 16.0.0, SVG Export Plug-In . SVG Version: 6.00 Build 0)  -->
<!DOCTYPE svg PUBLIC "-//W3C//DTD SVG 1.1//EN" "http://www.w3.org/Graphics/SVG/1.1/DTD/svg11.dtd">
<svg version="1.1" id="Layer_1" xmlns="http://www.w3.org/2000/svg" xmlns:xlink="http://www.w3.org/1999/xlink" x="0px" y="0px"
	 width="612px" height="792px" viewBox="0 0 612 792" enable-background="new 0 0 612 792" xml:space="preserve">
<g>
	<rect x="369.073" y="474.042" stroke="#FFFFFF" stroke-width="0.4" width="7.927" height="26.483"/>
	<polygon stroke="#FFFFFF" stroke-width="0.4" points="377,474.042 369.073,474.042 376.173,468.427 383.09,468.427 	"/>
	<polygon stroke="#FFFFFF" stroke-width="0.4" points="383.09,468.427 383.09,493.697 377,500.562 377,474.042 	"/>
	<line stroke="#FFFFFF" stroke-width="0.4" x1="381.216" y1="474.354" x2="381.216" y2="470.104"/>
	<line stroke="#FFFFFF" stroke-width="0.4" x1="381.216" y1="482.959" x2="381.216" y2="478.709"/>
	<line stroke="#FFFFFF" stroke-width="0.4" x1="381.216" y1="491.562" x2="381.216" y2="487.312"/>
	<g>
		<line stroke="#FFFFFF" stroke-width="0.4" x1="383.09" y1="489.485" x2="377" y2="496.143"/>
		<line stroke="#FFFFFF" stroke-width="0.4" x1="383.09" y1="485.273" x2="377" y2="491.723"/>
		<line stroke="#FFFFFF" stroke-width="0.4" x1="383.09" y1="481.062" x2="377" y2="487.302"/>
		<line stroke="#FFFFFF" stroke-width="0.4" x1="383.09" y1="476.85" x2="377" y2="482.882"/>
		<line stroke="#FFFFFF" stroke-width="0.4" x1="383.09" y1="472.639" x2="377" y2="478.463"/>
	</g>
	<line stroke="#FFFFFF" stroke-width="0.4" x1="377" y1="474.042" x2="383.09" y2="468.427"/>
	<g>
		<line stroke="#FFFFFF" stroke-width="0.4" x1="377" y1="496.111" x2="369.073" y2="496.111"/>
		<line stroke="#FFFFFF" stroke-width="0.4" x1="377" y1="491.697" x2="369.073" y2="491.697"/>
		<line stroke="#FFFFFF" stroke-width="0.4" x1="377" y1="487.284" x2="369.073" y2="487.284"/>
		<line stroke="#FFFFFF" stroke-width="0.4" x1="377" y1="482.869" x2="369.073" y2="482.869"/>
		<line stroke="#FFFFFF" stroke-width="0.4" x1="377" y1="478.456" x2="369.073" y2="478.456"/>
	</g>
	<line stroke="#FFFFFF" stroke-width="0.4" x1="379.153" y1="498.125" x2="379.153" y2="493.854"/>
	<line stroke="#FFFFFF" stroke-width="0.4" x1="379.153" y1="489.396" x2="379.153" y2="485.125"/>
	<line stroke="#FFFFFF" stroke-width="0.4" x1="379.153" y1="480.75" x2="379.153" y2="476.479"/>
</g>
</svg>
