<?xml version="1.0" encoding="utf-8"?>
<!-- Generator: Adobe Illustrator 16.0.0, SVG Export Plug-In . SVG Version: 6.00 Build 0)  -->
<!DOCTYPE svg PUBLIC "-//W3C//DTD SVG 1.1//EN" "http://www.w3.org/Graphics/SVG/1.1/DTD/svg11.dtd">
<svg version="1.1" id="Layer_1" xmlns="http://www.w3.org/2000/svg" xmlns:xlink="http://www.w3.org/1999/xlink" x="0px" y="0px"
	 width="612px" height="792px" viewBox="0 0 612 792" enable-background="new 0 0 612 792" xml:space="preserve">
<ellipse fill="#FFFFFF" cx="295.509" cy="395.506" rx="210" ry="216.167"/>
<path fill="#FFFFFF" d="M350.601,530.018c6.09,0,11.02-4.928,11.02-11.017v-66.11c0-6.091-4.93-11.021-11.02-11.021
	c-6.091,0-11.017,4.93-11.017,11.021v66.11C339.584,525.09,344.51,530.018,350.601,530.018z"/>
<path fill="#FFFFFF" d="M306.528,530.018c6.093,0,11.021-4.928,11.021-11.017v-66.11c0-6.091-4.928-11.021-11.021-11.021
	c-6.093,0-11.02,4.93-11.02,11.021v66.11C295.51,525.09,300.435,530.018,306.528,530.018z"/>
<path fill="#FFFFFF" d="M262.456,530.018c6.091,0,11.014-4.928,11.014-11.017v-66.11c0-6.091-4.923-11.021-11.014-11.021
	c-6.088,0-11.018,4.93-11.018,11.021v66.11C251.438,525.09,256.367,530.018,262.456,530.018z"/>
<path fill="#006ABA" d="M306.53,638.834c134.384,0,243.326-108.941,243.326-243.327c0-134.388-108.942-243.329-243.326-243.329
	c-134.388,0-243.329,108.941-243.329,243.329C63.201,529.893,172.143,638.834,306.53,638.834z M354.11,240.124
	c5.068-2.632,11.313-0.655,13.945,4.413l64.297,123.827c2.636,5.069,0.655,11.314-4.411,13.947
	c-1.523,0.791-3.155,1.166-4.759,1.166c-3.737,0-7.35-2.032-9.192-5.58l-64.295-123.823
	C347.062,249.001,349.041,242.758,354.11,240.124z M184.64,368.363l64.297-123.827c2.632-5.067,8.878-7.045,13.949-4.413
	c5.069,2.634,7.047,8.877,4.415,13.949l-64.296,123.823c-1.84,3.548-5.451,5.58-9.189,5.58c-1.606,0-3.236-0.375-4.76-1.166
	C183.985,379.678,182.008,373.433,184.64,368.363z M130.236,375.762c0-12.182,9.865-22.037,22.038-22.037h29.978l-5.48,10.552
	c-4.881,9.399-1.204,21.017,8.193,25.901c2.729,1.416,5.79,2.164,8.85,2.164c7.203,0,13.741-3.972,17.058-10.361l14.67-28.256
	h165.909l14.672,28.256c3.317,6.39,9.854,10.361,17.061,10.361c3.062,0,6.116-0.748,8.843-2.162
	c9.399-4.887,13.078-16.505,8.198-25.904l-5.479-10.552h26.035c12.18,0,22.039,9.855,22.039,22.037V397.8
	c0,12.177-9.859,22.036-22.039,22.036l-22.033,132.22h-264.44l-22.034-132.22c-12.173,0-22.038-9.859-22.038-22.036L130.236,375.762
	L130.236,375.762z"/>
<path fill="#FFFFFF" d="M218.383,530.018c6.087,0,11.021-4.928,11.021-11.017v-66.11c0-6.091-4.934-11.021-11.021-11.021
	c-6.095,0-11.02,4.93-11.02,11.021v66.11C207.363,525.09,212.288,530.018,218.383,530.018z"/>
<path fill="#FFFFFF" d="M394.675,530.018c6.091,0,11.02-4.928,11.02-11.017v-66.11c0-6.091-4.929-11.021-11.02-11.021
	s-11.021,4.93-11.021,11.021v66.11C383.652,525.09,388.584,530.018,394.675,530.018z"/>
</svg>
