<?xml version="1.0" encoding="utf-8"?>
<!-- Generator: Adobe Illustrator 16.0.0, SVG Export Plug-In . SVG Version: 6.00 Build 0)  -->
<!DOCTYPE svg PUBLIC "-//W3C//DTD SVG 1.1//EN" "http://www.w3.org/Graphics/SVG/1.1/DTD/svg11.dtd">
<svg version="1.1" id="Layer_1" xmlns="http://www.w3.org/2000/svg" xmlns:xlink="http://www.w3.org/1999/xlink" x="0px" y="0px"
	 width="612px" height="792px" viewBox="0 0 612 792" enable-background="new 0 0 612 792" xml:space="preserve">
<path fill="#FFFFFF" d="M413.689,324.043c4.365,18.993,6.811,38.8,7.618,59.314h55.154c-1.52-20.616-6.4-40.524-15.241-59.314
	H413.689z"/>
<path fill="#FFFFFF" d="M378.949,549.623c26.526-12.482,49.365-31.488,66.641-56.152h-39.111
	C399.272,515.397,390.025,534.398,378.949,549.623z"/>
<path fill="#FFFFFF" d="M413.689,468.065h47.531c8.841-18.892,13.722-38.8,15.241-59.319h-55.154
	C420.5,429.163,418.055,449.076,413.689,468.065z"/>
<path fill="#FFFFFF" d="M306.384,152.679c-134.388,0-243.329,108.943-243.329,243.326c0,134.389,108.941,243.332,243.329,243.332
	c134.386,0,243.327-108.943,243.327-243.332C549.711,261.622,440.77,152.679,306.384,152.679z M490.891,324.043h-1.428
	c7.627,18.993,11.897,38.8,13.205,59.314h0.712v25.389h-0.712c-1.308,20.417-5.578,40.33-13.205,59.319h1.428l-9.652,18.581
	l-3.554,6.824h-0.616c-32.998,57.781-92.029,94.448-157.938,98.72v0.802h-25.389v-0.802c-66.015-4.271-124.927-40.938-157.954-98.72
	h-0.597l-3.553-6.824l-9.644-18.581h1.313c-7.517-18.989-11.783-38.902-13.091-59.319h-0.832v-25.389h0.832
	c1.308-20.515,5.574-40.321,13.091-59.314h-1.313l9.644-18.581l3.553-6.922h0.597c33.027-57.67,91.939-94.329,157.954-98.602v-0.92
	h25.389v0.92c65.909,4.272,124.94,40.932,157.938,98.602h0.616l3.554,6.922L490.891,324.043z"/>
<path fill="#FFFFFF" d="M199.175,324.043h-47.636c-8.734,18.79-13.601,38.698-15.125,59.314h55.157
	C192.268,362.843,194.824,343.036,199.175,324.043z"/>
<path fill="#FFFFFF" d="M386.477,324.043H319.13v59.314h75.37C393.692,362.843,391.248,342.833,386.477,324.043z"/>
<path fill="#FFFFFF" d="M233.916,242.384c-26.617,12.588-49.36,31.492-66.631,56.156h39.006
	C213.507,276.716,222.846,257.608,233.916,242.384z"/>
<path fill="#FFFFFF" d="M233.916,298.54h59.825v-70.674C269.884,234.868,248.34,260.448,233.916,298.54z"/>
<path fill="#FFFFFF" d="M226.398,468.065h67.343v-59.319h-75.462C219.191,429.266,221.622,449.174,226.398,468.065z"/>
<path fill="#FFFFFF" d="M218.279,383.357h75.462v-59.314h-67.343C221.622,342.833,219.191,362.843,218.279,383.357z"/>
<path fill="#FFFFFF" d="M191.571,408.746h-55.157c1.524,20.52,6.391,40.428,15.125,59.319h47.636
	C194.824,449.076,192.268,429.163,191.571,408.746z"/>
<path fill="#FFFFFF" d="M319.13,493.471v70.669c23.771-7.006,45.411-32.492,59.819-70.669H319.13z"/>
<path fill="#FFFFFF" d="M293.741,564.14v-70.669h-59.825C248.34,531.647,269.884,557.134,293.741,564.14z"/>
<path fill="#FFFFFF" d="M167.285,493.471c17.271,24.664,40.014,43.67,66.631,56.152c-11.07-15.225-20.409-34.226-27.625-56.152
	H167.285z"/>
<path fill="#FFFFFF" d="M319.13,227.866v70.674h59.819C364.541,260.448,342.9,234.868,319.13,227.866z"/>
<path fill="#FFFFFF" d="M445.59,298.54c-17.275-24.664-40.114-43.568-66.641-56.156c11.076,15.225,20.323,34.332,27.529,56.156
	H445.59z"/>
<path fill="#FFFFFF" d="M394.5,408.746h-75.37v59.319h67.347C391.248,449.174,393.692,429.266,394.5,408.746z"/>
</svg>
